<svg xmlns="http://www.w3.org/2000/svg" viewBox="154 26 40.200001 40.299999">
  <g fill-rule="evenodd" fill="#fff">
    <path d="M191.7 55.8c1.6-2.9 2.5-6.2 2.5-9.7 0-11.1-9-20.1-20.1-20.1C163 26 154 35 154 46.1c0 11.1 9 20.1 20.1 20.1 3.6 0 7-1 10-2.7l10.1 2.8-2.5-10.5z M164.6 51.1c-.8 0-1.3-.2-1.8-.4s-.7-.7-.7-1.4c0-.4.1-.7.3-.9.2-.2.4-.4.7-.5.3-.2.6-.3.9-.3.3-.1.6-.1.9-.1.4 0 .8 0 1.1.1.3.1.6.1.7.2V51c-.3 0-.6.1-.9.1h-1.2zm-.2-9.5c-.7 0-1.4-.1-1.9 0s-1 .2-1.2.3l.2 1.6c.3-.1.6-.2 1.1-.3.4-.1 1-.1 1.6-.1.5 0 .9 0 1.2.2.3.2.5.4.7.6.2.2.3.5.4.8.1.3.1.6.1.9v.5c-.1-.1-.1-.1-.3-.1-.2 0-.3 0-.5-.1s-.4-.1-.6-.1h-.6c-.6 0-1.2.1-1.7.2-.5.2-1 .4-1.4.6-.4.2-.8.6-1 1-.3.4-.4.9-.4 1.5s.1 1.2.3 1.6c.2.5.5.8.9 1.1.4.3.8.5 1.3.6.5.1 1.1.2 1.7.2.4 0 .9-.1 1.3-.1s.8-.1 1.2-.1c.4 0 .7-.1 1-.1.3 0 .5-.1.7-.1v-6.6c0-.6-.1-1.1-.2-1.6-.2-.5-.4-.9-.7-1.3-.4-.3-.8-.6-1.3-.8-.5-.2-1.1-.3-1.9-.3z M173.7 51.1c.8 0 1.4-.1 1.7-.3.4-.2.6-.5.6-1s-.2-.8-.6-1.1c-.4-.3-1-.6-1.8-.9-.4-.2-.8-.3-1.2-.5-.4-.2-.7-.4-1-.6-.3-.2-.5-.5-.7-.8-.2-.3-.2-.7-.2-1.2 0-.9.3-1.7 1-2.2.7-.5 1.6-.8 2.8-.8.3 0 .6 0 .9.1.3.1.6.1.8.1.2 0 .5.1.7.2.2.1.4.1.5.1l-.3 1.6c-.2-.1-.5-.2-1-.3-.4-.1-1-.2-1.6-.2-.5 0-1 .1-1.4.3-.4.2-.6.5-.6 1 0 .2 0 .4.1.6.1.2.2.3.4.5.2.1.4.3.7.4.3.1.6.3 1 .4.5.2 1 .4 1.3.6.4.2.7.4 1 .6.3.2.5.5.6.9.1.3.2.8.2 1.3 0 1-.4 1.7-1.1 2.2-.7.5-1.8.8-3.1.8-.9 0-1.7-.1-2.2-.2-.5-.2-.9-.3-1.1-.4l.3-1.6c.2.1.6.2 1 .4.8-.1 1.5 0 2.3 0z M183.7 46.6c.4.3.8.7 1.3 1.2s.9 1 1.3 1.5.9 1.1 1.3 1.6.7 1.1 1 1.5h-2.2c-.3-.5-.6-1-1-1.5s-.8-1-1.2-1.4c-.4-.4-.8-.9-1.2-1.3-.4-.4-.8-.7-1.2-1v5.1h-1.9V36.9l1.9-.3v9.7l1.1-1.1 1.2-1.2c.4-.4.7-.8 1.1-1.2.3-.4.6-.7.9-1h2.2c-.3.3-.7.7-1 1.1-.4.4-.7.8-1.1 1.2l-1.2 1.2c-.5.6-.9 1-1.3 1.3z" />
  </g>
</svg>