<?xml version="1.0" encoding="UTF-8" standalone="no"?>
<!-- Generator: Adobe Illustrator 18.1.1, SVG Export Plug-In . SVG Version: 6.00 Build 0)  -->

<svg
   xmlns:dc="http://purl.org/dc/elements/1.1/"
   xmlns:cc="http://creativecommons.org/ns#"
   xmlns:rdf="http://www.w3.org/1999/02/22-rdf-syntax-ns#"
   xmlns:svg="http://www.w3.org/2000/svg"
   xmlns="http://www.w3.org/2000/svg"
   xmlns:sodipodi="http://sodipodi.sourceforge.net/DTD/sodipodi-0.dtd"
   xmlns:inkscape="http://www.inkscape.org/namespaces/inkscape"
   version="1.1"
   id="Layer_1"
   x="0px"
   y="0px"
   viewBox="0 0 372.04 372.04875"
   enable-background="new 0 0 400 400"
   xml:space="preserve"
   inkscape:version="0.48.4 r9939"
   width="100%"
   height="100%"
   sodipodi:docname="google.svg"><metadata
     id="metadata11"><rdf:RDF><cc:Work
         rdf:about=""><dc:format>image/svg+xml</dc:format><dc:type
           rdf:resource="http://purl.org/dc/dcmitype/StillImage" /></cc:Work></rdf:RDF></metadata><defs
     id="defs9" /><sodipodi:namedview
     pagecolor="#ffffff"
     bordercolor="#666666"
     borderopacity="1"
     objecttolerance="10"
     gridtolerance="10"
     guidetolerance="10"
     inkscape:pageopacity="0"
     inkscape:pageshadow="2"
     inkscape:window-width="640"
     inkscape:window-height="480"
     id="namedview7"
     showgrid="false"
     fit-margin-left="3.73"
     fit-margin-right="3.73"
     fit-margin-top="0"
     fit-margin-bottom="0"
     inkscape:zoom="0.59"
     inkscape:cx="186.08414"
     inkscape:cy="186.0789"
     inkscape:window-x="0"
     inkscape:window-y="25"
     inkscape:window-maximized="0"
     inkscape:current-layer="Layer_1" /><g
     id="g3"
     transform="translate(-13.915862,-14.03015)"><path
       d="M 142.9,24.2 C 97.6,39.7 59,73.6 37.5,116.5 30,131.3 24.6,147 21.3,163.3 c -8.2,40.4 -2.5,83.5 16.1,120.3 12.1,24 29.5,45.4 50.5,62.1 19.9,15.8 43,27.6 67.6,34.1 31,8.3 64,8.1 95.2,1 28.2,-6.5 54.9,-20 76.2,-39.6 22.5,-20.7 38.6,-47.9 47.1,-77.2 9.3,-31.9 10.5,-66 4.7,-98.8 -58.3,0 -116.7,0 -175,0 0,24.2 0,48.4 0,72.6 33.8,0 67.6,0 101.4,0 -3.9,23.2 -17.7,44.4 -37.2,57.5 -12.3,8.3 -26.4,13.6 -41,16.2 -14.6,2.5 -29.8,2.8 -44.4,-0.1 -14.9,-3 -29,-9.2 -41.4,-17.9 -19.8,-13.9 -34.9,-34.2 -42.6,-57.1 -7.9,-23.3 -8,-49.2 0,-72.4 5.6,-16.4 14.8,-31.5 27,-43.9 15,-15.4 34.5,-26.4 55.6,-30.9 18,-3.8 37,-3.1 54.6,2.2 15,4.5 28.8,12.8 40.1,23.6 11.4,-11.4 22.8,-22.8 34.2,-34.2 6,-6.1 12.3,-12 18.1,-18.3 -17.3,-16 -37.7,-28.9 -59.9,-37.1 -40,-14.8 -85,-15.1 -125.3,-1.2 z"
       id="path5"
       inkscape:connector-curvature="0"
       style="fill:#ffffff" /></g></svg>