<?xml version="1.0" encoding="utf-8"?>
<!-- Generator: Adobe Illustrator 18.1.1, SVG Export Plug-In . SVG Version: 6.00 Build 0)  -->
<!DOCTYPE svg PUBLIC "-//W3C//DTD SVG 1.1//EN" "http://www.w3.org/Graphics/SVG/1.1/DTD/svg11.dtd">
<svg version="1.1" id="Layer_1" xmlns="http://www.w3.org/2000/svg" xmlns:xlink="http://www.w3.org/1999/xlink" x="0px" y="0px"
	 viewBox="0 0 400 400" enable-background="new 0 0 400 400" xml:space="preserve">
<g>
	<path fill="white" d="M142.9,24.2C97.6,39.7,59,73.6,37.5,116.5c-7.5,14.8-12.9,30.5-16.2,46.8c-8.2,40.4-2.5,83.5,16.1,120.3
		c12.1,24,29.5,45.4,50.5,62.1c19.9,15.8,43,27.6,67.6,34.1c31,8.3,64,8.1,95.2,1c28.2-6.5,54.9-20,76.2-39.6
		c22.5-20.7,38.6-47.9,47.1-77.2c9.3-31.9,10.5-66,4.7-98.8c-58.3,0-116.7,0-175,0c0,24.2,0,48.4,0,72.6c33.8,0,67.6,0,101.4,0
		c-3.9,23.2-17.7,44.4-37.2,57.5c-12.3,8.3-26.4,13.6-41,16.2c-14.6,2.5-29.8,2.8-44.4-0.1c-14.9-3-29-9.2-41.4-17.9
		c-19.8-13.9-34.9-34.2-42.6-57.1c-7.9-23.3-8-49.2,0-72.4c5.6-16.4,14.8-31.5,27-43.9c15-15.4,34.5-26.4,55.6-30.9
		c18-3.8,37-3.1,54.6,2.2c15,4.5,28.8,12.8,40.1,23.6c11.4-11.4,22.8-22.8,34.2-34.2c6-6.1,12.3-12,18.1-18.3
		c-17.3-16-37.7-28.9-59.9-37.1C228.2,10.6,183.2,10.3,142.9,24.2z"/>

</g>
</svg>
